<?xml version="1.0" standalone="no"?>
<!DOCTYPE svg PUBLIC "-//W3C//DTD SVG 20010904//EN"
 "http://www.w3.org/TR/2001/REC-SVG-20010904/DTD/svg10.dtd">
<svg version="1.0" xmlns="http://www.w3.org/2000/svg"
 width="788.000000pt" height="755.000000pt" viewBox="0 0 788.000000 755.000000"
 preserveAspectRatio="xMidYMid meet">

<g transform="translate(0.000000,755.000000) scale(0.100000,-0.100000)"
fill="#000000" stroke="none">
<path d="M600 7262 l-275 -2 3 -3492 c1 -1920 3 -3493 5 -3494 2 -2 1629 -4
3617 -5 l3614 -2 -2 3493 c-1 1921 -4 3495 -6 3497 -5 5 -6498 10 -6956 5z
m6540 -3487 c-1 -1691 -4 -3076 -8 -3079 -10 -6 -1475 -9 -4149 -7 l-2233 1 0
3080 0 3080 3195 0 3195 0 0 -3075z"/>
<path d="M2280 6310 c-193 -32 -417 -122 -580 -233 -109 -74 -264 -233 -342
-352 -209 -319 -276 -608 -237 -1023 31 -332 232 -695 504 -911 85 -68 226
-152 405 -244 148 -76 193 -99 480 -240 152 -75 315 -170 353 -205 34 -32 47
-77 47 -163 0 -53 -6 -77 -30 -126 -40 -80 -96 -142 -161 -178 -50 -28 -62
-30 -150 -30 -90 1 -101 3 -163 35 -84 42 -154 112 -196 194 -26 53 -34 83
-43 174 l-11 109 -210 6 c-116 3 -214 3 -217 -1 -11 -13 10 -184 37 -297 30
-127 75 -231 138 -320 49 -68 166 -182 212 -205 16 -8 41 -22 56 -32 86 -58
300 -104 436 -94 104 8 238 51 350 114 62 34 105 69 170 137 48 49 94 104 102
120 8 17 22 39 31 50 9 11 34 70 55 130 36 105 37 116 38 245 1 144 -9 190
-72 315 -74 148 -131 184 -892 569 -501 253 -517 264 -675 446 -66 76 -157
255 -181 358 -52 222 -30 431 66 637 83 176 187 313 311 410 79 62 249 152
327 174 37 10 79 24 93 29 14 6 68 15 120 21 164 20 390 -12 503 -71 22 -12
64 -31 91 -43 103 -43 248 -157 339 -266 177 -212 256 -435 256 -719 l0 -127
213 -6 c116 -3 214 -3 216 -1 7 7 -19 353 -30 408 -16 75 -65 238 -87 288 -10
23 -25 59 -32 78 -8 19 -36 74 -62 122 -139 250 -351 459 -578 573 -171 85
-301 129 -460 154 -105 17 -418 12 -540 -9z"/>
<path d="M4255 6273 c4 -10 9 -43 12 -73 7 -66 37 -135 141 -322 43 -79 98
-179 122 -223 24 -44 64 -110 88 -148 24 -37 57 -95 74 -130 17 -34 50 -92 74
-130 24 -37 56 -91 70 -119 14 -28 67 -122 116 -207 50 -86 103 -182 120 -214
16 -32 66 -120 111 -195 46 -75 110 -184 142 -242 32 -58 82 -141 110 -185 28
-44 63 -105 79 -135 16 -30 83 -138 149 -240 66 -102 151 -234 190 -295 39
-60 123 -179 187 -263 63 -84 150 -198 192 -255 43 -56 91 -127 107 -157 41
-76 229 -310 250 -310 26 0 30 148 22 1030 -4 498 -7 1335 -7 1861 l1 956
-140 6 c-77 3 -177 3 -223 0 l-82 -6 5 -31 c7 -47 22 -2314 16 -2519 l-1 -39
-25 30 c-14 16 -39 56 -56 88 -16 33 -44 76 -60 96 -16 21 -48 73 -71 115 -23
43 -50 91 -61 107 -20 28 -85 142 -137 241 -14 28 -50 90 -78 138 -29 48 -66
116 -83 150 -17 34 -55 101 -84 148 -29 47 -67 113 -84 148 -18 34 -52 93 -76
131 -24 38 -61 102 -81 142 -20 40 -56 105 -80 145 -73 121 -231 406 -362 653
-30 58 -68 124 -83 146 -16 23 -36 60 -45 83 l-16 41 -225 0 c-210 0 -225 -1
-218 -17z"/>
<path d="M2505 5643 c-73 -10 -244 -57 -285 -79 -142 -73 -275 -203 -339 -331
-76 -152 -96 -255 -89 -469 l4 -133 53 -106 c30 -59 68 -120 85 -137 57 -57
218 -154 481 -288 143 -74 280 -145 305 -160 25 -14 61 -32 80 -40 50 -20 178
-89 226 -121 22 -15 52 -31 67 -34 14 -4 51 -28 84 -53 32 -26 75 -59 95 -74
69 -52 194 -221 248 -335 78 -166 99 -276 80 -428 -11 -92 -64 -265 -107 -350
-100 -198 -319 -418 -493 -497 -143 -65 -298 -110 -399 -115 -269 -15 -636
147 -834 367 -98 109 -200 295 -254 460 -26 82 -36 135 -45 247 l-12 143 -131
1 c-71 0 -163 4 -202 8 l-73 7 0 -104 c0 -237 116 -614 257 -834 85 -133 205
-270 328 -374 136 -115 287 -200 480 -272 84 -31 251 -65 360 -72 179 -12 307
6 505 70 401 129 748 452 938 873 79 173 127 477 103 649 -26 188 -40 246 -85
361 -67 172 -227 419 -326 503 -14 12 -38 34 -55 48 -38 34 -176 119 -280 172
-96 49 -301 155 -485 252 -74 38 -146 73 -160 77 -14 4 -116 55 -227 113 -142
75 -203 112 -207 127 -9 34 -7 121 5 177 25 115 111 229 220 292 39 22 59 26
140 28 85 2 99 0 144 -24 126 -66 198 -145 226 -248 6 -25 12 -88 13 -141 l1
-97 218 1 217 0 0 67 c0 112 -28 276 -59 351 -122 289 -344 464 -656 514 -90
15 -104 16 -160 8z"/>
<path d="M4360 5174 c-21 -100 -26 -395 -29 -1689 -3 -1883 -3 -2016 4 -2023
4 -4 100 -8 213 -10 l207 -3 0 1210 -1 1211 23 -27 c89 -111 277 -404 411
-643 105 -186 137 -241 179 -310 22 -36 75 -128 118 -205 42 -77 94 -167 115
-200 21 -33 53 -91 72 -130 18 -38 36 -72 39 -75 7 -6 183 -314 264 -460 31
-58 91 -162 133 -233 l75 -127 166 0 c91 0 196 -3 234 -6 64 -6 67 -6 67 16 0
31 -58 216 -85 270 -12 25 -48 88 -80 140 -32 52 -75 124 -95 160 -84 148
-155 269 -194 325 -23 33 -61 98 -86 145 -63 121 -100 185 -137 240 -35 52
-140 229 -193 325 -18 33 -52 87 -75 120 -23 33 -56 89 -74 124 -18 35 -47 83
-65 105 -18 23 -65 96 -104 162 -39 67 -82 134 -95 150 -13 16 -35 49 -47 74
-20 40 -214 337 -261 400 -11 14 -32 50 -48 81 -17 31 -41 69 -55 86 -23 27
-116 178 -116 188 0 2 -21 34 -47 70 -74 101 -175 246 -278 400 -52 77 -106
153 -119 169 l-24 29 -12 -59z"/>
</g>
</svg>
